<?xml version="1.0" encoding="UTF-8"?>
<svg width="171px" height="41px" viewBox="0 0 171 41" version="1.1" xmlns="http://www.w3.org/2000/svg" xmlns:xlink="http://www.w3.org/1999/xlink">
    <!-- Generator: Sketch 57.1 (83088) - https://sketch.com -->
    <title>CMSgov-Logo-White</title>
    <desc>Created with Sketch.</desc>
    <defs>
        <polygon id="path-1" points="0.791 0.377 31.791 0.377 31.791 31.94 0.791 31.94"></polygon>
    </defs>
    <g id="CMSgov-Logo-White" stroke="none" stroke-width="1" fill="none" fill-rule="evenodd">
        <g id="Group-4" transform="translate(90.000000, 9.000000)">
            <mask id="mask-2" fill="white">
                <use xlink:href="#path-1"></use>
            </mask>
            <g id="Clip-2"></g>
            <path d="M3.314,18.752 C4.011,18.752 4.606,18.998 5.098,19.49 C5.59,19.982 5.836,20.584 5.836,21.295 C5.836,21.992 5.59,22.59 5.098,23.089 C4.606,23.588 4.011,23.838 3.314,23.838 C2.617,23.838 2.022,23.588 1.53,23.089 C1.038,22.59 0.791,21.992 0.791,21.295 C0.791,20.584 1.038,19.982 1.53,19.49 C2.022,18.998 2.617,18.752 3.314,18.752" id="Fill-1" fill="#FFFFFF" mask="url(#mask-2)"></path>
            <path d="M20.45,3.145 C18.823,3.145 17.313,3.538 15.918,4.325 C14.523,5.111 13.43,6.198 12.637,7.585 C11.844,8.973 11.447,10.474 11.447,12.087 C11.447,14.534 12.268,16.558 13.908,18.157 C15.549,19.757 17.675,20.557 20.286,20.557 C22.925,20.557 25.047,19.764 26.654,18.178 C28.26,16.592 29.063,14.507 29.063,11.923 C29.063,10.241 28.694,8.741 27.956,7.421 C27.218,6.102 26.172,5.059 24.818,4.294 C23.465,3.528 22.009,3.145 20.45,3.145 Z M28.92,0.951 L31.791,0.951 L31.791,18.731 C31.791,21.862 31.518,24.152 30.971,25.601 C30.219,27.652 28.913,29.231 27.054,30.339 C25.194,31.446 22.959,32 20.348,32 C18.434,32 16.714,31.728 15.19,31.187 C13.666,30.646 12.425,29.919 11.468,29.007 C10.511,28.095 9.629,26.762 8.822,25.007 L11.939,25.007 C12.788,26.483 13.883,27.577 15.225,28.288 C16.566,28.999 18.229,29.354 20.214,29.354 C22.172,29.354 23.824,28.989 25.173,28.261 C26.521,27.531 27.482,26.615 28.058,25.512 C28.633,24.408 28.92,22.626 28.92,20.167 L28.92,19.018 C27.839,20.386 26.518,21.435 24.957,22.166 C23.397,22.898 21.742,23.264 19.99,23.264 C17.937,23.264 16.007,22.754 14.201,21.736 C12.394,20.717 10.999,19.347 10.013,17.624 C9.028,15.901 8.535,14.008 8.535,11.943 C8.535,9.879 9.048,7.955 10.075,6.17 C11.101,4.386 12.521,2.975 14.334,1.935 C16.148,0.896 18.061,0.377 20.072,0.377 C21.742,0.377 23.299,0.722 24.742,1.413 C26.187,2.103 27.578,3.241 28.92,4.827 L28.92,0.951 L28.92,0.951 Z" id="Fill-3" fill="#FFFFFF" mask="url(#mask-2)"></path>
        </g>
        <path d="M136.395,12.186 C134.008,12.186 131.956,13.068 130.24,14.832 C128.525,16.596 127.668,18.728 127.668,21.23 C127.668,22.844 128.06,24.348 128.842,25.742 C129.623,27.137 130.68,28.213 132.012,28.972 C133.342,29.731 134.803,30.11 136.395,30.11 C137.986,30.11 139.447,29.731 140.777,28.972 C142.109,28.213 143.166,27.137 143.947,25.742 C144.729,24.348 145.121,22.844 145.121,21.23 C145.121,18.728 144.26,16.596 142.537,14.832 C140.815,13.068 138.768,12.186 136.395,12.186 Z M136.404,9.377 C139.842,9.377 142.691,10.621 144.951,13.109 C147.006,15.379 148.033,18.065 148.033,21.169 C148.033,24.286 146.947,27.01 144.776,29.341 C142.605,31.672 139.814,32.838 136.404,32.838 C132.98,32.838 130.184,31.672 128.013,29.341 C125.842,27.01 124.756,24.286 124.756,21.169 C124.756,18.079 125.783,15.399 127.838,13.13 C130.098,10.628 132.953,9.377 136.404,9.377 L136.404,9.377 Z" id="Fill-5" fill="#FFFFFF"></path>
        <polyline id="Fill-6" fill="#FFFFFF" points="149.133 9.951 152.188 9.951 159.678 26.216 167.076 9.951 170.152 9.951 159.939 32.264 159.406 32.264 149.133 9.951"></polyline>
        <path d="M29.724,7.43 L25.707,11.259 C22.976,8.371 19.902,6.927 16.487,6.927 C13.605,6.927 11.177,7.913 9.203,9.883 C7.229,11.854 6.242,14.283 6.242,17.171 C6.242,19.183 6.679,20.969 7.553,22.529 C8.428,24.089 9.664,25.314 11.262,26.203 C12.86,27.093 14.636,27.538 16.59,27.538 C18.256,27.538 19.779,27.226 21.159,26.603 C22.538,25.981 24.055,24.849 25.707,23.206 L29.601,27.268 C27.372,29.443 25.267,30.952 23.284,31.792 C21.302,32.633 19.039,33.054 16.496,33.054 C11.807,33.054 7.968,31.567 4.981,28.594 C1.994,25.62 0.5,21.809 0.5,17.161 C0.5,14.153 1.18,11.48 2.541,9.142 C3.901,6.804 5.849,4.924 8.385,3.502 C10.921,2.081 13.652,1.37 16.578,1.37 C19.066,1.37 21.462,1.895 23.766,2.946 C26.07,3.997 28.056,5.492 29.724,7.43" id="Fill-7" fill="#FFFFFF"></path>
        <path d="M29.724,7.43 L25.707,11.259 C22.976,8.371 19.902,6.927 16.487,6.927 C13.605,6.927 11.177,7.913 9.203,9.883 C7.229,11.854 6.242,14.283 6.242,17.171 C6.242,19.183 6.679,20.969 7.553,22.529 C8.428,24.089 9.664,25.314 11.262,26.203 C12.86,27.093 14.636,27.538 16.59,27.538 C18.256,27.538 19.779,27.226 21.159,26.603 C22.538,25.981 24.055,24.849 25.707,23.206 L29.601,27.268 C27.372,29.443 25.267,30.952 23.284,31.792 C21.302,32.633 19.039,33.054 16.496,33.054 C11.807,33.054 7.968,31.567 4.981,28.594 C1.994,25.62 0.5,21.809 0.5,17.161 C0.5,14.153 1.18,11.48 2.541,9.142 C3.901,6.804 5.849,4.924 8.385,3.502 C10.921,2.081 13.652,1.37 16.578,1.37 C19.066,1.37 21.462,1.895 23.766,2.946 C26.07,3.997 28.056,5.492 29.724,7.43 Z" id="Stroke-8" stroke="#FFFFFF"></path>
        <polyline id="Fill-10" fill="#FFFFFF" points="37.674 2.128 43.269 2.128 50.262 23.169 57.319 2.128 62.91 2.128 67.971 32.295 62.418 32.295 59.183 13.244 52.774 32.295 47.714 32.295 41.362 13.244 38.05 32.295 32.451 32.295 37.674 2.128"></polyline>
        <polygon id="Stroke-11" stroke="#FFFFFF" points="37.674 2.128 43.269 2.128 50.262 23.169 57.319 2.128 62.91 2.128 67.971 32.295 62.418 32.295 59.183 13.244 52.774 32.295 47.714 32.295 41.362 13.244 38.05 32.295 32.451 32.295"></polygon>
        <path d="M88.376,6.23 L84.123,9.983 C82.63,7.905 81.11,6.866 79.562,6.866 C78.809,6.866 78.192,7.067 77.713,7.471 C77.234,7.874 76.994,8.329 76.994,8.834 C76.994,9.34 77.165,9.819 77.508,10.27 C77.974,10.872 79.377,12.163 81.719,14.146 C83.91,15.978 85.239,17.133 85.705,17.612 C86.868,18.788 87.693,19.912 88.18,20.985 C88.666,22.059 88.909,23.231 88.909,24.502 C88.909,26.977 88.054,29.021 86.343,30.634 C84.632,32.247 82.401,33.054 79.65,33.054 C77.501,33.054 75.63,32.528 74.035,31.475 C72.441,30.422 71.075,28.768 69.939,26.512 L74.766,23.6 C76.218,26.266 77.888,27.599 79.778,27.599 C80.763,27.599 81.592,27.312 82.263,26.738 C82.934,26.163 83.27,25.5 83.27,24.748 C83.27,24.065 83.016,23.381 82.509,22.698 C82.002,22.014 80.886,20.968 79.161,19.56 C75.874,16.88 73.751,14.812 72.793,13.356 C71.833,11.9 71.354,10.448 71.354,8.999 C71.354,6.907 72.152,5.112 73.747,3.615 C75.341,2.118 77.309,1.37 79.649,1.37 C81.155,1.37 82.589,1.718 83.951,2.415 C85.313,3.113 86.788,4.384 88.376,6.23" id="Fill-13" fill="#FFFFFF"></path>
        <path d="M88.376,6.23 L84.123,9.983 C82.63,7.905 81.11,6.866 79.562,6.866 C78.809,6.866 78.192,7.067 77.713,7.471 C77.234,7.874 76.994,8.329 76.994,8.834 C76.994,9.34 77.165,9.819 77.508,10.27 C77.974,10.872 79.377,12.163 81.719,14.146 C83.91,15.978 85.239,17.133 85.705,17.612 C86.868,18.788 87.693,19.912 88.18,20.985 C88.666,22.059 88.909,23.231 88.909,24.502 C88.909,26.977 88.054,29.021 86.343,30.634 C84.632,32.247 82.401,33.054 79.65,33.054 C77.501,33.054 75.63,32.528 74.035,31.475 C72.441,30.422 71.075,28.768 69.939,26.512 L74.766,23.6 C76.218,26.266 77.888,27.599 79.778,27.599 C80.763,27.599 81.592,27.312 82.263,26.738 C82.934,26.163 83.27,25.5 83.27,24.748 C83.27,24.065 83.016,23.381 82.509,22.698 C82.002,22.014 80.886,20.968 79.161,19.56 C75.874,16.88 73.751,14.812 72.793,13.356 C71.833,11.9 71.354,10.448 71.354,8.999 C71.354,6.907 72.152,5.112 73.747,3.615 C75.341,2.118 77.309,1.37 79.649,1.37 C81.155,1.37 82.589,1.718 83.951,2.415 C85.313,3.113 86.788,4.384 88.376,6.23 Z" id="Stroke-14" stroke="#FFFFFF"></path>
    </g>
</svg>